<svg width="1200" height="1200" viewBox="0 0 1200 1200" fill="none" xmlns="http://www.w3.org/2000/svg">
<rect width="1200" height="1200" fill="#28AAFF"/>
<g clip-path="url(#clip0)">
<path d="M644.445 489.692L645.669 492.919H649.121H706.834C709.853 492.919 712.764 494.294 714.727 496.682C716.65 499.057 717.403 502.161 716.812 505.169C716.811 505.174 716.81 505.179 716.809 505.184L708.254 546.55L708.252 546.562L708.249 546.574C707.298 551.291 703.143 554.679 698.286 554.679H680.05H668.83L676.332 563.022C692.902 581.45 700.887 605.072 700.802 628.757C700.671 654.99 690.718 681.12 670.022 700.074L668.4 701.56V703.761V760.58C668.4 770.374 660.406 778.356 650.624 778.356H597.39C587.581 778.356 579.614 770.378 579.614 760.58V737.288V732.288H574.614H276.391H271.391V737.288V760.58C271.391 770.378 263.424 778.356 253.615 778.356H200.381C190.573 778.356 182.606 770.378 182.606 760.58V702.622V700.442L181.008 698.958C180.695 698.668 180.401 698.449 180.278 698.358L180.266 698.349C180.241 698.33 180.221 698.314 180.205 698.303C160.81 680.375 150.118 655.012 150.219 626.737C150.321 603.833 157.958 581.042 173.61 562.985L180.783 554.71H169.832H152.735C147.915 554.71 143.743 551.326 142.767 546.597C142.767 546.597 142.767 546.597 142.767 546.597L134.218 505.175L134.216 505.166L134.215 505.157C133.586 502.168 134.356 499.048 136.287 496.69L136.295 496.681L136.302 496.672C138.224 494.303 141.11 492.919 144.186 492.919H201.9H205.343L206.571 489.702C213.68 471.081 221.77 452.762 230.634 437.442C239.562 422.009 248.982 410.137 258.55 403.831C276.038 392.326 301.114 383.494 330.353 377.556C359.518 371.633 392.489 368.656 425.518 368.656C458.547 368.656 491.518 371.633 520.683 377.556C549.921 383.494 574.998 392.326 592.486 403.831C602.048 410.132 611.485 421.991 620.419 437.416C629.288 452.728 637.377 471.047 644.445 489.692ZM278.06 433.514L278.059 433.514C274.474 435.875 271.022 439.725 267.73 444.339C264.387 449.025 260.974 454.836 257.555 461.463C250.716 474.722 243.679 491.592 236.995 510.04L234.567 516.743H241.696H609.309H616.443L614.009 510.037C607.31 491.583 600.266 474.706 593.423 461.446C590.003 454.818 586.589 449.007 583.244 444.323C579.952 439.713 576.499 435.866 572.911 433.511C557.568 423.409 535.098 416.077 509.54 411.245C483.873 406.393 454.655 403.981 425.499 403.981C396.342 403.981 367.122 406.393 341.453 411.245C315.888 416.078 293.41 423.41 278.06 433.514ZM257.502 582.633C230.01 582.633 207.695 604.912 207.695 632.426C207.695 659.939 230.008 682.235 257.502 682.235C285.03 682.235 307.31 659.937 307.31 632.426C307.31 604.914 285.027 582.633 257.502 582.633ZM544.288 632.426C544.288 659.939 566.6 682.235 594.095 682.235C621.59 682.235 643.902 659.939 643.902 632.426C643.902 604.914 621.62 582.633 594.095 582.633C566.602 582.633 544.288 604.912 544.288 632.426Z" fill="#F9FAFB" stroke="#111213" stroke-width="10"/>
</g>
<path d="M929.293 542.2H878.093C876.209 542.2 874.68 540.671 874.68 538.787V520.013C874.679 504.015 887.694 491 903.693 491C919.692 491 932.706 504.015 932.706 520.013V538.786C932.706 540.671 931.177 542.2 929.293 542.2ZM881.506 535.373H925.879V520.013C925.879 507.78 915.926 497.826 903.692 497.826C891.458 497.826 881.506 507.78 881.506 520.013V535.373Z" fill="black"/>
<path d="M903.612 563.377L950.141 574.258L961.798 524.406L915.27 513.526L903.612 563.377Z" fill="#83D816"/>
<path d="M950.145 577.688C949.887 577.688 949.626 577.659 949.363 577.598L902.832 566.715C901.95 566.508 901.187 565.962 900.709 565.191C900.231 564.423 900.079 563.495 900.286 562.614L911.948 512.761C912.376 510.925 914.211 509.781 916.049 510.215L962.58 521.098C963.462 521.305 964.225 521.851 964.703 522.622C965.181 523.39 965.333 524.318 965.126 525.199L953.464 575.052C953.097 576.627 951.693 577.688 950.145 577.688ZM907.71 560.845L947.595 570.174L957.7 526.97L917.815 517.641L907.71 560.845Z" fill="black"/>
<path d="M849.141 572.698L906.232 565.949L899.001 504.779L841.91 511.528L849.141 572.698Z" fill="#2A8EE6"/>
<path d="M849.135 576.117C847.428 576.117 845.955 574.84 845.749 573.103L838.52 511.936C838.3 510.064 839.638 508.367 841.508 508.145L898.598 501.397C899.501 501.291 900.4 501.547 901.112 502.107C901.824 502.667 902.283 503.488 902.389 504.387L909.618 565.556C909.724 566.454 909.47 567.36 908.908 568.07C908.348 568.782 907.527 569.241 906.63 569.347L849.54 576.093C849.403 576.108 849.268 576.117 849.135 576.117ZM845.699 514.525L852.128 568.913L902.439 562.969L896.01 508.579L845.699 514.525Z" fill="black"/>
<path d="M881.329 598.276L936.322 585.053L922.406 527.179L867.412 540.402L881.329 598.276Z" fill="#ED5481"/>
<path d="M881.323 601.688C879.782 601.688 878.382 600.638 878.007 599.073L864.091 541.202C863.651 539.369 864.779 537.526 866.612 537.086L921.599 523.863C922.483 523.653 923.408 523.8 924.179 524.269C924.95 524.742 925.503 525.503 925.715 526.382L939.631 584.255C939.843 585.136 939.696 586.064 939.223 586.835C938.75 587.608 937.991 588.159 937.11 588.371L882.123 601.593C881.856 601.659 881.586 601.688 881.323 601.688ZM871.525 542.924L883.845 594.16L932.195 582.534L919.875 531.299L871.525 542.924Z" fill="black"/>
<path d="M974.034 560.854L980.348 683.974H827.034L833.348 560.854H974.034Z" fill="#F9FAFB" stroke="#111213" stroke-width="10"/>
<path d="M929.292 583.16C933.062 583.16 936.119 580.103 936.119 576.333C936.119 572.562 933.062 569.506 929.292 569.506C925.521 569.506 922.465 572.562 922.465 576.333C922.465 580.103 925.521 583.16 929.292 583.16Z" fill="#8C6B3B"/>
<path d="M929.293 586.574C923.646 586.574 919.053 581.981 919.053 576.334C919.053 570.687 923.646 566.094 929.293 566.094C934.94 566.094 939.533 570.687 939.533 576.334C939.533 581.981 934.94 586.574 929.293 586.574ZM929.293 572.921C927.411 572.921 925.88 574.452 925.88 576.334C925.88 578.216 927.411 579.747 929.293 579.747C931.175 579.747 932.706 578.216 932.706 576.334C932.706 574.452 931.175 572.921 929.293 572.921Z" fill="black"/>
<path d="M878.093 583.16C881.863 583.16 884.92 580.103 884.92 576.333C884.92 572.562 881.863 569.506 878.093 569.506C874.322 569.506 871.266 572.562 871.266 576.333C871.266 580.103 874.322 583.16 878.093 583.16Z" fill="#8C6B3B"/>
<path d="M878.092 586.574C872.445 586.574 867.852 581.981 867.852 576.334C867.852 570.687 872.445 566.094 878.092 566.094C883.739 566.094 888.332 570.687 888.332 576.334C888.332 581.981 883.739 586.574 878.092 586.574ZM878.092 572.921C876.21 572.921 874.679 574.452 874.679 576.334C874.679 578.216 876.21 579.747 878.092 579.747C879.974 579.747 881.505 578.216 881.505 576.334C881.505 574.452 879.974 572.921 878.092 572.921Z" fill="black"/>
<path d="M926.38 581.063V580.962L926.34 580.868C926.196 580.527 926.117 580.147 926.117 579.747C926.117 578.139 927.422 576.834 929.03 576.834H929.293C930.901 576.834 932.206 578.139 932.206 579.747V598.52C932.206 614.242 919.415 627.033 903.693 627.033C887.971 627.033 875.18 614.242 875.18 598.52V579.747C875.18 578.139 876.485 576.834 878.093 576.834C879.701 576.834 881.006 578.139 881.006 579.747V598.52C881.006 611.029 891.183 621.207 903.693 621.207C916.203 621.207 926.38 611.03 926.38 598.52V581.063Z" fill="#111213" stroke="#111213"/>
<path d="M107 816H776V768.75V721.5H960.5H1022.5" stroke="#111213" stroke-width="10" stroke-linecap="round" stroke-linejoin="round"/>
<defs>
<clipPath id="clip0">
<rect width="593" height="593" fill="white" transform="translate(129 277)"/>
</clipPath>
</defs>
</svg>
